ply
format ascii 1.0
element vertex 344
property float x
property float y
property float z
property uchar red
property uchar green
property uchar blue
end_header
-0.99100067 0.12933089 5.56374582 191 192 183
-0.97683207 -0.00208262 5.56322270 131 109 85
-0.96321038 0.06327105 5.53637550 2 1 4
-0.94668726 -0.00722949 5.58782882 146 110 74
-0.93239776 0.08418007 5.52199105 14 5 5
-0.93818874 0.19943384 5.56053772 3 2 1
-0.93052915 0.14674121 5.54202898 0 0 0
-0.92354040 0.06302748 5.51772143 168 138 107
-0.91069726 0.08673324 5.51357478 161 125 86
-0.90249511 0.09813300 5.52117630 133 92 54
-0.88505555 0.01244453 5.53246774 113 73 35
-0.88505555 0.01244453 5.53246774 113 73 35
-0.87434061 0.22233639 5.55162072 177 153 125
-0.85732883 0.13539792 5.51593472 175 147 118
-0.85732883 0.13539792 5.51593472 175 147 118
-0.85732883 0.13539792 5.51593472 175 147 118
-0.84763906 0.13795304 5.51581358 109 76 42
-0.84206172 0.12458052 5.51659312 107 72 39
-0.82340982 0.17280040 5.52525532 134 105 77
-0.81353457 0.10784434 5.52047464 110 74 33
-0.81353457 0.10784434 5.52047464 110 74 33
-0.81466825 0.17811694 5.53695069 66 39 6
-0.81358727 0.15337958 5.52921771 156 124 91
-0.79970919 0.13892768 5.51745196 107 71 34
-0.80028857 0.21072286 5.55881458 137 107 77
-0.77705097 0.07425912 5.52918295 102 63 23
-0.77705097 0.07425912 5.52918295 102 63 23
-0.77154194 0.21965664 5.55797864 169 139 108
-0.76718703 0.14786112 5.54495983 69 37 6
-0.75238593 0.20333488 5.54882573 144 114 80
-0.75013061 0.13462449 5.54443986 69 39 5
-0.74178935 0.13037502 5.54482016 70 39 6
-0.72714160 0.06921122 5.53587198 155 119 81
-0.72542666 0.04971574 5.53660236 181 147 111
-0.72495662 0.18387888 5.55058677 178 142 106
-0.73991209 -0.16880515 5.69371964 144 118 93
-0.71954551 0.11004914 5.54708191 69 41 6
-0.70274501 0.15603049 5.55464662 100 61 17
-0.70096427 0.24376885 5.58495810 108 75 44
-0.69125325 0.15944221 5.55207901 144 110 73
-0.68944602 0.05984912 5.54180701 116 78 39
-0.68839883 0.18979465 5.56681336 66 35 6
-0.71320754 -0.26413769 5.81661466 128 110 92
-0.70299438 -0.23345891 5.75799540 110 80 51
-0.67415012 -0.21734970 5.70075945 161 133 111
-0.66342169 0.24382180 5.60825897 37 17 2
-0.68147374 -0.27856140 5.79562121 90 61 32
-0.64603796 0.04220120 5.55902134 110 73 33
-0.66914355 -0.29390767 5.79558142 102 71 41
-0.66826230 -0.28477995 5.79987049 169 139 110
-0.63838413 0.25205252 5.61664471 175 146 116
-0.65812110 -0.29627488 5.79870913 148 117 89
-0.62556730 -0.00921766 5.57073646 113 71 27
-0.61139106 0.02689857 5.56508413 157 123 84
-0.61139106 0.02689857 5.56508413 157 123 84
-0.60965570 0.03955787 5.56493652 102 63 21
-0.63726138 -0.39996693 5.81244474 128 109 85
-0.59463251 0.02314136 5.57137620 186 147 111
-0.58650695 0.13054388 5.58449045 66 32 2
-0.57144883 0.07866758 5.56686536 112 74 29
-0.57144883 0.07866758 5.56686536 112 74 29
-0.57999455 -0.30869132 5.69199882 169 136 102
-0.56986374 0.20005139 5.61131893 45 21 2
-0.57702956 -0.32469359 5.69829315 175 144 110
-0.55769207 0.06779402 5.56969949 118 79 36
-0.55291000 -0.00184177 5.58214158 167 133 90
-0.54164894 -0.01838352 5.57563831 167 130 88
-0.53051076 0.14663325 5.59649886 85 52 11
-0.52401643 -0.12739003 5.60753498 197 154 115
-0.52401643 -0.12739003 5.60753498 197 154 115
-0.48489505 -0.25400471 5.62297438 125 91 55
-0.48489505 -0.25400471 5.62297438 125 91 55
-0.47854563 0.17458796 5.61703408 138 105 74
-0.49503811 -0.52481129 5.81260658 196 189 181
-0.47615181 0.06543568 5.60477574 82 47 9
-0.48656435 -0.48958065 5.81602945 59 30 2
-0.46548471 -0.07055664 5.60297854 181 144 102
-0.50257561 0.66435251 6.15196609 193 181 169
-0.50257561 0.66435251 6.15196609 193 181 169
-0.46606746 -0.48739465 5.81671072 111 79 47
-0.44439630 -0.08093466 5.60101198 147 108 65
-0.44176428 -0.00561031 5.59788341 118 78 38
-0.44176428 -0.00561031 5.59788341 118 78 38
-0.43877242 0.00322554 5.59723643 195 157 119
-0.43081975 0.03965005 5.61336158 49 20 1
-0.43092388 -0.06550828 5.61859981 83 42 1
-0.42067795 -0.42485920 5.72560580 120 89 52
-0.42067795 -0.42485920 5.72560580 120 89 52
-0.42089967 -0.53894700 5.80844614 113 89 65
-0.41165917 -0.46212430 5.76749566 175 150 113
-0.40818541 -0.42724483 5.73141432 121 88 54
-0.39655273 0.02387112 5.62378268 3 2 2
-0.39711544 -0.00816367 5.61975557 6 4 5
-0.39711544 -0.00816367 5.61975557 6 4 5
-0.39397630 0.04990665 5.63248363 29 14 10
-0.39116652 0.09815444 5.63985651 72 40 4
-0.39925716 -0.44062349 5.74710189 182 156 123
-0.40038357 -0.48102082 5.77979877 158 127 96
-0.38627858 0.18283900 5.66605203 53 22 1
-0.38320845 0.10578480 5.63108905 160 122 84
-0.38143084 -0.08637635 5.62728764 67 36 4
-0.37963999 0.02514471 5.63073305 6 5 5
-0.38457832 -0.41654876 5.71767248 136 105 74
-0.38641282 -0.55462978 5.83490787 181 180 176
-0.36877453 -0.04699573 5.58139207 148 112 73
-0.37003510 -0.09300057 5.62147994 66 38 8
-0.37003510 -0.09300057 5.62147994 66 38 8
-0.37074685 -0.02770222 5.62486023 119 90 68
-0.37018210 0.01464656 5.63058043 172 168 161
-0.37018210 0.01464656 5.63058043 172 168 161
-0.36744783 0.05540041 5.63810051 1 1 3
-0.36642419 0.00174331 5.62968493 7 7 7
-0.36581956 0.01740412 5.62665436 177 175 172
-0.35706480 -0.03118932 5.62360906 156 126 97
-0.35890370 -0.37233904 5.68751885 186 158 124
-0.34797894 -0.04126832 5.62515515 83 56 13
-0.34649698 -0.04345598 5.61241188 83 56 13
-0.33839469 -0.02951096 5.61944892 128 98 64
-0.34251696 -0.37800154 5.69655556 196 167 136
-0.34768651 -0.46520729 5.78543317 140 113 83
-0.33364123 0.03235753 5.62982625 8 1 0
-0.33106906 0.08789539 5.65680699 125 87 50
-0.33112650 -0.35223468 5.66741091 168 136 99
-0.32691760 -0.04032319 5.61092856 84 55 23
-0.32862657 0.06418528 5.64533301 65 32 1
-0.32592206 -0.00723359 5.63262429 151 117 80
-0.32441703 -0.01858659 5.62525287 73 39 8
-0.32250471 0.02727722 5.63641874 168 137 101
-0.32028270 -0.12183178 5.61642052 91 48 11
-0.33277796 -0.48557177 5.82552848 116 86 53
-0.31932645 0.11538271 5.64431184 179 145 108
-0.31970052 0.03768356 5.64045032 161 129 92
-0.31643091 -0.13106162 5.61431967 180 150 107
-0.33202102 0.31083217 5.90484378 123 97 72
-0.31132045 -0.01549726 5.63632287 143 105 68
-0.30376006 -0.04998574 5.61054022 81 53 16
-0.30376006 -0.04998574 5.61054022 81 53 16
-0.30361532 0.01548448 5.62837751 90 57 22
-0.29459463 0.04371964 5.64833941 68 39 5
-0.29103634 -0.17024501 5.61897330 106 72 34
-0.29264183 0.12416011 5.67007971 49 25 2
-0.28976319 0.00120424 5.62681668 94 61 30
-0.28504713 -0.33901236 5.69772584 119 80 47
-0.27581284 0.03241482 5.65032715 70 38 9
-0.27193840 -0.07172277 5.61565534 173 142 112
-0.27051676 -0.04815605 5.63136941 75 46 9
-0.25813933 -0.33130790 5.69064657 166 137 103
-0.26059092 -0.45486537 5.80163871 154 133 105
-0.25196766 -0.19018718 5.62653504 167 134 95
-0.24783489 -0.02662907 5.63998911 151 115 73
-0.24783489 -0.02662907 5.63998911 151 115 73
-0.25635213 0.36225431 5.90985493 128 104 79
-0.24158989 0.12616096 5.67848618 114 79 46
-0.24158989 0.12616096 5.67848618 114 79 46
-0.24696106 0.37921232 5.91321364 75 49 17
-0.24065931 0.26589656 5.86951497 13 1 0
-0.24176020 0.41191449 5.92578670 80 56 19
-0.22255880 0.10204949 5.68157280 147 114 80
-0.23074509 0.38206044 5.91217124 58 31 2
-0.22750758 0.45021168 5.95497444 83 58 26
-0.22846544 0.47952784 5.98551050 145 120 91
-0.21439895 0.01893089 5.65593264 158 118 82
-0.20421912 -0.08298831 5.65414584 167 126 86
-0.19980561 -0.02162942 5.65243650 79 56 25
-0.19980561 -0.02162942 5.65243650 79 56 25
-0.20052559 -0.34510379 5.71853264 188 161 131
-0.19184080 0.09754217 5.70253830 126 95 69
-0.20114279 0.46825994 5.96577118 89 63 32
-0.18378031 0.05950292 5.68478123 39 13 3
-0.17383095 0.07282399 5.68718910 132 102 73
-0.17449392 -0.34649735 5.73607346 179 153 118
-0.17058141 0.15054273 5.73584201 86 68 46
-0.16789268 0.06039681 5.69549078 113 84 55
-0.16461880 0.11653178 5.71740423 20 10 3
-0.15284540 0.30031338 5.62358505 76 46 19
-0.15249864 0.06576372 5.67443924 17 7 0
-0.14984255 0.26193094 5.61910220 77 43 11
-0.14924266 0.32683009 5.62385339 165 143 112
-0.14753634 0.03950105 5.68707133 6 1 0
-0.14042091 0.30545097 5.61788473 178 149 119
-0.14118508 -0.13205751 5.67203015 141 107 72
-0.14060599 -0.04809638 5.69184587 132 95 68
-0.13758285 0.11567844 5.61365111 57 32 2
-0.13758285 0.11567844 5.61365111 57 32 2
-0.13784170 -0.29197746 5.70539374 188 163 132
-0.13344123 -0.19753411 5.65687038 60 33 5
-0.12262074 0.37417862 5.65127168 191 162 130
-0.12262074 0.37417862 5.65127168 191 162 130
-0.12048843 0.06900805 5.61243956 158 124 86
-0.11498386 -0.22868603 5.64739382 173 145 115
-0.10796585 -0.01777718 5.62648658 96 61 27
-0.10637437 -0.25173041 5.67430458 130 97 60
-0.10457047 0.31162357 5.62096520 177 148 114
-0.09601239 -0.16675739 5.64563033 146 113 75
-0.08491287 0.65163539 6.18572330 192 178 165
-0.06755366 0.04012605 5.62523697 152 123 87
-0.07466609 0.60859627 6.19931624 161 147 136
-0.06272395 0.29756626 5.78471163 175 149 116
-0.06332479 0.60348479 6.20035617 61 42 28
-0.06273535 0.58503787 6.18930555 125 104 72
-0.05200583 -0.01094124 5.62464946 169 139 106
-0.05616902 0.57554052 6.18187542 43 20 0
-0.05241729 0.56266865 6.16729420 146 122 86
-0.04529651 0.59613344 6.18194623 181 149 118
-0.04056097 -0.05606576 5.64097049 123 88 50
-0.03855731 0.63482611 6.18408692 197 182 170
-0.03316660 0.62579978 6.18536872 90 68 46
-0.02794535 -0.21509629 5.70608981 125 95 59
-0.02361412 0.43301482 5.98120475 191 162 132
-0.02218043 -0.22251183 5.72009570 181 151 122
-0.01606007 0.64845685 6.19232302 194 178 163
-0.00625244 0.63869273 6.18256226 81 62 45
-0.00002580 -0.16974906 5.71110533 119 87 49
-0.00002580 -0.16974906 5.71110533 119 87 49
0.00724866 0.62393724 6.20543824 146 111 78
0.01900635 0.44043655 6.02598832 177 143 108
0.02596967 0.63927719 6.18269998 92 74 54
0.02937455 0.59561778 6.17104266 73 39 2
0.03079393 0.57709173 6.16798438 175 140 112
0.06024189 0.51981336 6.14951069 136 101 69
0.09877384 0.61118480 6.20623862 131 105 77
0.10158778 0.59908129 6.19541955 184 153 114
0.10421755 0.31013062 6.00484440 174 145 114
0.12677909 0.38313297 6.05941753 140 110 72
0.14088335 0.20441523 6.01512871 174 141 102
0.14106959 0.20298024 6.00807051 166 133 93
0.14846263 -0.31814365 6.20136759 132 100 69
0.14957251 -0.28621659 6.16560137 166 137 103
0.15069143 -0.22523150 6.14118123 119 80 42
0.15143798 -0.17985272 6.10491818 123 89 54
0.16042891 0.26224726 6.02389721 156 123 90
0.20005236 0.25155959 6.05225506 184 152 115
0.20688254 -0.17002773 6.12152859 116 75 28
0.21558069 -0.31836203 6.19022085 172 143 116
0.21734550 -0.39498481 6.24107192 138 106 80
0.22143242 0.49194567 6.24821883 203 186 176
0.21916815 -0.37584843 6.22848158 177 150 121
0.21916815 -0.37584843 6.22848158 177 150 121
0.22679850 -0.41429589 6.28473023 130 106 78
0.22623244 -0.13173400 6.11467796 163 132 101
0.22623244 -0.13173400 6.11467796 163 132 101
0.23205777 0.17416697 6.07012935 148 114 81
0.23787535 -0.37864234 6.23298920 163 135 106
0.23376616 -0.11060102 6.10044582 189 156 120
0.24462923 -0.07108403 6.09751472 154 121 84
0.24715530 -0.00182191 6.09322723 98 64 21
0.24641043 -0.02287298 6.07423864 165 136 101
0.24660772 -0.02409574 6.06670060 162 134 97
0.25276193 -0.28594829 6.16935104 121 84 43
0.25276193 -0.28594829 6.16935104 121 84 43
0.25147071 -0.06120305 6.11249617 160 126 91
0.26444871 -0.35166182 6.20093378 164 134 105
0.26528133 -0.28803053 6.16552379 172 138 106
0.26737687 0.24470220 6.10151604 192 160 123
0.27210840 -0.36224820 6.21578721 101 71 36
0.27502863 -0.44753825 6.27583370 151 120 90
0.28765656 -0.48581265 6.30544931 204 204 208
0.31591660 -0.49111205 6.30760862 138 108 82
0.31919020 -0.39757659 6.23269984 162 136 109
0.33500503 -0.31417211 6.18881822 169 135 97
0.35483059 -0.26873779 6.18513599 127 86 43
0.36708124 -0.21115646 6.15795349 179 148 116
0.36708124 -0.21115646 6.15795349 179 148 116
0.36956658 -0.06801289 6.14580641 146 111 73
0.38225770 -0.37729065 6.21926621 104 70 32
0.40825396 -0.30499824 6.20455556 137 96 47
0.41706893 -0.17077489 6.17314187 170 136 103
0.42458016 -0.11659119 6.17249625 181 147 109
0.48256995 -0.61065847 6.35179382 133 109 83
0.51987014 -0.99383796 6.47016012 193 185 176
0.52270085 -1.02717961 6.45252597 138 115 84
0.50865192 0.00646007 6.22667532 105 74 44
0.51026192 -0.13524091 6.20209050 174 137 102
0.55441864 -1.03420850 6.46041319 124 86 43
0.55456472 -0.93076525 6.44264089 186 177 172
0.56083472 -0.64751178 6.33753631 135 112 86
0.57376952 -0.88636705 6.42219336 198 192 188
0.58495842 -0.86755364 6.42632525 198 191 185
0.58865642 -0.88061163 6.41752389 109 85 63
0.60541873 -0.65968225 6.34011642 148 120 90
0.59846158 -0.19827293 6.22873227 165 131 99
0.63015723 0.05233891 6.43518802 114 88 61
0.63053265 0.03103951 6.41631769 133 106 85
0.64064061 0.08125738 6.43842601 66 45 26
0.64178766 0.05474918 6.42897314 52 24 1
0.64236996 -0.78713320 6.39321006 201 197 196
0.64509810 0.03193395 6.40980883 157 123 95
0.66380896 0.13360387 6.43430797 194 180 170
0.66865380 0.13051994 6.44034460 189 175 165
0.65531375 -0.13580375 6.26442383 174 141 106
0.66743252 -0.81533293 6.39133391 172 141 105
0.66755168 -0.77590819 6.37562075 94 69 43
0.67622556 -0.00854374 6.40330761 120 92 63
0.68107962 -0.03259899 6.39145788 60 36 15
0.68063273 -0.79884955 6.38310273 169 139 104
0.68820286 0.03474723 6.40650885 143 108 77
0.69330088 -0.01187103 6.40175277 124 89 61
0.69553778 0.06381251 6.41860227 76 42 7
0.69071947 -0.75043509 6.36839638 112 82 48
0.69713417 -0.04972286 6.37630311 138 111 84
0.69474072 -0.73879622 6.35825809 105 82 52
0.70589424 -0.03502808 6.39620616 51 25 1
0.71238347 0.10359097 6.42493131 86 68 48
0.70684908 -0.72371954 6.35495972 84 64 41
0.71770728 -0.70163817 6.35662557 203 203 212
0.72487223 0.01345098 6.36862553 78 43 7
0.72823040 -0.70134157 6.34507989 83 58 24
0.73738101 0.10232383 6.42786400 89 71 50
0.73643305 -0.02850793 6.39987437 153 112 79
0.73924071 0.07069415 6.42078345 77 43 5
0.73228736 -0.68734702 6.34947498 216 211 214
0.75207351 0.07077430 6.41997210 70 38 1
0.75207351 0.07077430 6.41997210 70 38 1
0.74360910 -0.68828389 6.34734361 69 45 24
0.74360910 -0.68828389 6.34734361 69 45 24
0.74496174 -0.71539543 6.33777427 138 104 69
0.76088412 0.10188858 6.43490098 74 53 26
0.75748084 -0.73968633 6.33707971 160 126 90
0.76415962 -0.75131317 6.34945685 117 82 45
0.77887075 -0.78327528 6.37664607 153 126 95
0.79407007 -0.12382687 6.37652007 84 53 3
0.78928461 -0.69915139 6.33765825 167 134 100
0.80778534 -0.04809629 6.40279000 82 47 15
0.81546580 -0.69695304 6.33932410 186 153 120
0.82200927 -0.68587497 6.33956262 178 147 117
0.82869733 -0.71404904 6.35512672 151 118 84
0.82438954 -0.48744987 6.29001168 159 127 95
0.82624715 -0.39688885 6.29618176 169 140 108
0.83222773 -0.64730944 6.32476882 178 148 121
0.83476388 -0.27176942 6.31918159 181 151 115
0.84404657 -0.66957999 6.35710671 131 100 63
0.84792615 -0.65427453 6.34554398 134 110 86
0.85170438 -0.61489794 6.33273110 135 115 96
0.87146269 -0.03171372 6.43312895 196 200 214
0.85870019 -0.50203163 6.32415240 134 107 78
0.87549441 -0.09968089 6.41257552 152 119 88
0.88248829 -0.27956195 6.37579316 136 106 78
0.89056550 -0.08809716 6.43146655 197 202 221
0.88410009 -0.45111669 6.35403523 153 131 112
0.89492641 -0.27527957 6.39775732 143 119 89
0.91536683 0.02554266 6.43948216 197 195 200
0.90356411 -0.36364718 6.34535054 201 203 216
0.98988923 -0.44225560 6.66979452 195 202 218
2.49224422 -0.11447752 6.68155463 170 158 157
