ply
format ascii 1.0
element vertex 183
property float x
property float y
property float z
property uchar red
property uchar green
property uchar blue
end_header
-0.68745114 -0.26304546 6.28500194 128 110 87
-0.62495345 0.19965997 5.85921981 116 80 28
-0.64794567 -0.30031316 6.21661343 150 125 94
-0.60234895 0.05799068 5.81706701 105 68 8
-0.58576983 0.16457748 5.86407739 178 141 97
-0.58522521 0.17454518 5.86817066 109 75 31
-0.62049880 -0.32738938 6.20236625 158 129 97
-0.60859927 -0.34273752 6.20705906 167 134 99
-0.60391751 -0.33427096 6.21345268 82 50 22
-0.59125073 -0.45808233 6.21817502 140 114 91
-0.54409242 0.02591250 5.83986434 109 72 20
-0.57837221 -0.47586863 6.22385635 137 111 79
-0.53987264 0.15730042 5.85726483 115 83 42
-0.53842532 0.02021116 5.84267472 165 127 82
-0.55004283 -0.36101027 6.07808663 187 157 124
-0.52968021 0.16293401 5.87847577 161 129 92
-0.55487206 -0.51264357 6.25316047 146 125 100
-0.51258734 0.05705707 5.86670341 193 162 118
-0.53737778 -0.47234630 6.20501695 103 62 16
-0.53737778 -0.47234630 6.20501695 103 62 16
-0.53348716 -0.49666117 6.22269544 113 75 32
-0.50596037 0.21820846 5.94070135 179 150 108
-0.44390579 0.17771039 5.93317929 99 61 20
-0.44427127 -0.56524085 6.22139972 159 126 81
-0.41616396 -0.06048070 5.87395135 175 137 92
-0.43074572 -0.54044565 6.21883273 127 98 66
-0.41981206 -0.57022982 6.16747971 124 100 67
-0.42068026 -0.55113638 6.19309043 50 25 3
-0.40765348 -0.56897862 6.16950231 69 42 2
-0.39316775 0.21209636 6.00434799 169 139 103
-0.40691364 -0.53653107 6.18651523 115 86 54
-0.40470721 -0.55354122 6.16977699 125 93 56
-0.40426543 -0.55364343 6.16877057 125 93 56
-0.38226553 -0.56525818 6.15410758 121 90 57
-0.36637997 -0.58448468 6.12453356 151 119 72
-0.34497065 0.02844463 5.89426924 191 156 117
-0.34497065 0.02844463 5.89426924 191 156 117
-0.35687037 -0.56772231 6.14171568 97 69 35
-0.34729229 -0.49630774 6.06315429 163 137 107
-0.33761917 -0.54633292 6.10394589 1 1 1
-0.31337575 -0.03999744 5.91971821 182 140 98
-0.31367091 0.04680035 5.95094928 5 0 1
-0.31775451 -0.53184993 6.08892929 9 2 1
-0.30811534 0.01647671 5.92465972 166 140 105
-0.31045341 -0.43231118 5.97275871 182 152 117
-0.30374983 -0.07581166 5.90434856 172 137 98
-0.31063965 -0.54484328 6.09993320 167 130 94
-0.29809291 0.04274153 5.94866558 1 2 0
-0.29040205 -0.11156379 5.88863788 184 147 105
-0.29305290 -0.43428430 5.97189503 172 142 106
-0.29305290 -0.43428430 5.97189503 172 142 106
-0.29069289 0.01278454 5.91680086 34 31 27
-0.28124037 0.08595112 5.96997832 142 106 58
-0.28094462 0.04186153 5.95681426 12 11 9
-0.27647972 0.08037750 5.97483813 199 165 127
-0.27082858 0.03092564 5.95487580 190 188 175
-0.27082858 0.03092564 5.95487580 190 188 175
-0.27082858 0.03092564 5.95487580 190 188 175
-0.27082858 0.03092564 5.95487580 190 188 175
-0.27082858 0.03092564 5.95487580 190 188 175
-0.26800602 0.07183428 5.97924598 9 1 1
-0.27380213 -0.53630294 6.09026693 124 89 52
-0.26164350 0.04034298 5.95829059 0 0 1
-0.26370784 -0.51292568 6.08167333 185 154 122
-0.26370784 -0.51292568 6.08167333 185 154 122
-0.25559228 -0.01389551 5.91915624 167 139 102
-0.24515373 -0.02471480 5.90481877 87 57 32
-0.24922652 -0.50670556 6.08014034 188 160 131
-0.23586124 -0.49986565 6.07967735 112 84 42
-0.23751202 -0.56895153 6.18997800 124 89 47
-0.23421901 -0.51055612 6.09057062 174 146 110
-0.22452404 -0.13840179 5.88764871 194 159 117
-0.22597550 -0.41482129 5.96690305 183 154 113
-0.22280053 0.00766353 5.94979856 165 135 101
-0.22740574 -0.55350063 6.16421975 121 88 50
-0.21950824 0.04196780 5.97085347 169 136 101
-0.21356826 -0.11662945 5.88783184 181 146 114
-0.22206185 -0.50343847 6.09295127 120 90 52
-0.21744943 -0.48873283 6.06633920 175 148 118
-0.21201778 -0.43708755 6.00995956 122 86 50
-0.19918872 0.03230998 5.96454079 88 60 30
-0.18354227 0.01693158 5.94302370 92 58 25
-0.15339677 -0.18181277 5.88057932 180 150 112
-0.15346360 -0.44346678 6.02031912 190 162 129
-0.14776941 -0.45616440 6.05549828 101 67 33
-0.11154654 -0.03872817 5.94500665 169 131 90
-0.10239567 0.44023179 6.70982709 137 118 93
-0.05903069 -0.38449995 6.03631432 177 150 114
-0.03201950 0.01580013 6.02717493 149 122 91
-0.01975291 -0.24340354 5.92775612 170 135 97
-0.01883762 -0.31457329 5.97782217 195 164 127
-0.01692081 0.14220224 5.94706223 61 33 3
-0.00799796 -0.38892736 6.07813567 183 156 123
-0.00398796 -0.17779411 5.92291865 3 0 1
0.00550798 -0.24578009 5.92494394 175 146 107
0.00591674 0.22330904 5.95713805 177 148 108
0.00631568 -0.16917013 5.90934721 136 110 72
0.00631568 -0.16917013 5.90934721 136 110 72
0.01381327 -0.26187962 5.93668059 132 99 64
0.01381327 -0.26187962 5.93668059 132 99 64
0.01447878 -0.03021419 5.91857275 155 122 85
0.02091452 -0.05668955 5.90739580 147 111 73
0.02728310 -0.16197644 5.89565112 165 129 89
0.03573942 -0.27820904 5.95734139 131 101 65
0.10827195 -0.24553102 6.02138189 185 155 119
0.13509515 -0.13692699 6.00777676 185 155 117
0.23863932 -0.33509628 6.74195439 167 134 99
0.26780339 -0.62031611 7.18889201 194 198 207
0.28404520 -0.29896559 6.73380859 198 164 126
0.28601633 -0.18750479 6.68720086 123 85 37
0.28601633 -0.18750479 6.68720086 123 85 37
0.28601633 -0.18750479 6.68720086 123 85 37
0.31795553 -0.37721540 6.78693094 107 70 25
0.31432986 -0.12025579 6.68058557 180 145 111
0.32998910 -0.12240857 6.70964337 130 88 40
0.38355347 -0.34399186 6.78110601 179 146 106
0.38969690 -0.32885506 6.78969232 128 87 33
0.41058660 -0.63699182 7.00523238 140 110 73
0.39772625 0.06727431 6.80165117 127 90 48
0.41144333 -0.60434306 6.94905915 181 152 118
0.41896374 -0.61739847 6.96039386 114 83 41
0.40961247 -0.28257668 6.76314012 168 139 99
0.41563020 -0.21746759 6.77055698 107 70 26
0.42320011 0.03326704 6.75764020 112 75 28
0.43174944 -0.14514143 6.77960320 171 137 99
0.43174944 -0.14514143 6.77960320 171 137 99
0.44708906 -0.64073710 6.98296985 165 135 101
0.43928938 -0.20078386 6.76870046 171 136 94
0.44490340 -0.47940322 6.84341707 127 88 40
0.46079249 -0.47992293 6.85148633 173 139 102
0.46148244 -0.18315468 6.80556152 119 85 42
0.47559341 -0.70511898 7.02000273 135 105 70
0.47437183 -0.45638151 6.82775615 128 92 43
0.48028149 -0.41752364 6.81815336 172 138 96
0.54199386 -0.51824650 6.86861325 165 130 90
0.57209974 -0.59183830 6.91468608 103 72 29
0.57723740 -0.39125363 6.84598954 172 143 99
0.57723740 -0.39125363 6.84598954 172 143 99
0.58786373 -0.49395939 6.86317111 187 150 105
0.59919495 -0.59806510 6.88820136 109 75 37
0.59869810 -0.37698781 6.85964262 128 86 27
0.62496930 -0.14402681 6.90710584 163 133 100
0.63390093 -0.56455825 6.88432144 151 116 74
0.63682025 -0.30685845 6.87159349 128 87 32
0.63442484 -0.34733336 6.85428501 171 139 98
0.66895560 -0.58103043 6.88613891 150 115 74
0.79317379 -1.43384497 7.27284545 190 182 176
0.80001289 -1.45105852 7.24476582 119 98 69
0.78959432 -0.25643555 6.96617683 118 85 41
0.85042566 -1.43123075 7.24275756 136 103 60
0.85042566 -1.43123075 7.24275756 136 103 60
0.84746382 -1.28758400 7.18183360 196 195 190
0.82198021 -0.28156803 6.97311832 108 75 30
0.85484142 -1.30754329 7.16644296 116 90 67
0.87175507 -1.28072115 7.18426183 114 93 62
0.97051549 -0.14109711 7.44435454 158 126 87
0.97397978 -0.12191521 7.45405248 75 57 32
0.96951104 -1.15324417 7.07143178 172 140 99
0.94982642 -0.59283151 6.92883834 179 141 102
0.96198994 -0.93747620 6.97357360 172 140 100
0.98267372 -1.09321537 7.06696352 114 86 55
0.98358959 -0.41368868 7.00926310 118 85 41
1.04109048 -0.17178557 7.40153135 148 115 76
0.99916092 -0.50908715 6.95713916 122 84 33
0.99916092 -0.50908715 6.95713916 122 84 33
1.07860301 -0.12728301 7.45550990 110 89 59
1.02290553 -0.99406506 7.03442853 139 116 83
1.02481299 -1.03066249 7.03736060 103 73 40
1.02518399 -1.00811251 7.03125912 210 213 221
1.04422439 -1.01589752 7.03605085 94 63 26
1.04422439 -1.01589752 7.03605085 94 63 26
1.04593030 -1.00065548 7.03876167 204 190 200
1.08416237 -1.04138020 7.04104526 158 121 76
1.09796368 -1.03851615 7.03082558 126 92 44
1.10167509 -0.62224046 6.97917577 170 136 98
1.11387658 -0.94704447 6.98810128 97 66 20
1.11745191 -0.99752129 6.99822701 132 96 55
1.16306849 -1.03594966 7.06902576 148 130 100
1.15711735 -0.98917645 7.03184175 139 106 63
1.16084794 -0.96917314 7.02377472 143 110 80
1.23069403 -0.34571547 7.36087399 201 201 215
1.27180776 -0.22104391 7.44178570 197 195 194
1.31435364 -0.37436993 7.65378173 199 202 217
