ply
format ascii 1.0
element vertex 365
property float x
property float y
property float z
property uchar red
property uchar green
property uchar blue
end_header
-0.21060329 -0.21133811 2.00930707 120 88 61
-0.20658615 -0.17042667 1.99172778 4 3 3
-0.20487135 -0.15993569 1.98898720 161 139 108
-0.19743141 -0.18392719 1.99356388 140 113 83
-0.19627288 -0.15386558 1.98715317 158 128 100
-0.19585953 -0.15773945 1.98807033 66 38 7
-0.19585953 -0.15773945 1.98807033 66 38 7
-0.19619942 -0.17796951 1.99275604 78 50 14
-0.19447262 -0.20678384 2.00191546 169 136 98
-0.19069090 -0.15865954 1.98920997 120 91 61
-0.19031404 -0.20141529 1.99668488 158 128 96
-0.19005818 -0.15703947 1.98820207 85 56 23
-0.18757583 -0.17010475 1.99108395 172 140 104
-0.18669217 -0.17378204 1.99318183 72 43 9
-0.18495539 -0.16396650 1.98938002 76 45 15
-0.18419931 -0.19436035 1.99769474 91 58 24
-0.17917177 -0.20019054 1.99885023 166 132 95
-0.17917177 -0.20019054 1.99885023 166 132 95
-0.17686898 -0.13035906 1.98528253 58 33 3
-0.17107864 -0.12716871 1.98388786 64 38 5
-0.17202901 -0.19775812 1.99930794 92 58 21
-0.16935779 -0.16215686 1.98881730 80 49 20
-0.16799046 -0.19916743 2.00059224 151 118 76
-0.16349240 -0.13101993 1.98444019 76 50 13
-0.16023788 -0.16664657 1.98964786 86 52 14
-0.15869463 -0.13445720 1.98426435 67 42 11
-0.15766714 -0.19673709 2.00173360 97 62 25
-0.15570809 -0.17150761 1.99138078 179 141 105
-0.15435292 -0.12956790 1.98229272 74 44 14
-0.15467919 -0.17899713 1.99449629 110 71 33
-0.14788224 -0.13648375 1.98464268 185 157 127
-0.14788224 -0.13648375 1.98464268 185 157 127
-0.14701094 -0.12913216 1.98271969 147 120 91
-0.14641340 -0.13974577 1.98535876 75 42 9
-0.14334374 -0.12869695 1.98252938 69 40 10
-0.14333862 -0.17631465 1.99340565 162 127 96
-0.14126216 -0.14188502 1.98532244 88 56 18
-0.14137503 -0.17911001 1.99429307 89 53 18
-0.14048110 -0.10822699 1.98235905 60 34 9
-0.14074011 -0.22076096 2.01279430 114 77 39
-0.13894185 -0.17486373 1.99305879 156 124 89
-0.13894185 -0.17486373 1.99305879 156 124 89
-0.13989779 -0.18970100 1.99944252 158 121 81
-0.13956205 -0.20280372 2.00654480 79 47 9
-0.13832388 -0.19657615 2.00532982 64 34 5
-0.13637001 -0.09753523 1.97870174 75 49 24
-0.13494653 -0.15542459 1.99131808 71 46 15
-0.13115346 -0.09315877 1.97903598 142 116 86
-0.13022431 -0.14048761 1.98462957 157 127 93
-0.12849266 -0.14912259 1.98799679 101 67 29
-0.12729786 -0.09976798 1.97907144 173 147 115
-0.12703976 -0.10351545 1.97999486 72 45 18
-0.12453492 -0.06758768 1.97786510 78 52 21
-0.12291440 -0.10228465 1.97871501 70 43 20
-0.12117048 -0.14741179 1.98798425 76 43 6
-0.12002674 -0.20709727 2.01041493 127 94 58
-0.11788563 -0.10267789 1.97867784 184 153 127
-0.11788563 -0.10267789 1.97867784 184 153 127
-0.11709786 -0.06778594 1.97706120 125 99 71
-0.11709786 -0.06778594 1.97706120 125 99 71
-0.11377504 -0.07541094 1.97817243 126 102 72
-0.11338718 -0.06853407 1.97687667 70 43 13
-0.11338718 -0.06853407 1.97687667 70 43 13
-0.11213110 -0.04082598 1.98080849 84 57 28
-0.11213110 -0.04082598 1.98080849 84 57 28
-0.11287143 -0.20581895 2.01186854 69 37 0
-0.11091319 -0.10354262 1.97869999 70 40 4
-0.11091319 -0.10354262 1.97869999 70 40 4
-0.11093621 -0.08146152 1.97970721 103 79 52
-0.10990150 -0.21167241 2.01353748 150 116 73
-0.10730352 -0.10440371 1.97995450 86 57 23
-0.10800691 -0.18739939 2.00002702 84 49 16
-0.10641768 -0.10939878 1.98100797 193 161 130
-0.10641768 -0.10939878 1.98100797 193 161 130
-0.10395721 -0.10694940 1.98034351 78 48 16
-0.10519170 -0.21276543 2.01463000 158 123 79
-0.10354706 -0.18942586 1.99946486 99 65 28
-0.09900647 -0.10959044 1.98177852 78 47 14
-0.09900647 -0.10959044 1.98177852 78 47 14
-0.09757752 -0.17030945 1.99898671 72 47 17
-0.09653508 -0.16069269 1.99275932 97 59 21
-0.09585428 -0.12323559 1.98512877 78 49 15
-0.09585428 -0.12323559 1.98512877 78 49 15
-0.09598166 -0.19051481 2.00212444 149 116 78
-0.09486775 -0.11781214 1.98417160 62 35 1
-0.09327797 -0.11207165 1.98226874 76 47 14
-0.09096924 -0.19618097 2.00348165 117 79 42
-0.08793517 -0.21685565 2.01893765 168 132 93
-0.08550201 -0.15864637 1.99286281 72 41 13
-0.08294047 -0.12281854 1.98605455 84 52 18
-0.08299934 -0.13588718 1.99055827 59 33 5
-0.08115894 -0.11583682 1.98442785 67 37 15
-0.07994807 -0.12140615 1.98514877 196 164 138
-0.07677447 -0.08424231 1.98151833 59 33 6
-0.07664584 -0.15107422 1.99282934 67 37 8
-0.07567310 -0.09089842 1.98352650 57 31 6
-0.07319371 -0.08220659 1.98098495 132 107 81
-0.07319371 -0.08220659 1.98098495 132 107 81
-0.07172951 -0.12813219 1.98704941 75 42 11
-0.07193821 -0.03267773 1.98662779 66 40 9
-0.07138291 -0.12273549 1.98642628 72 39 13
-0.07091176 -0.17484877 2.00181130 158 124 86
-0.06937127 -0.16232912 1.99558421 97 63 26
-0.06303175 -0.11981023 1.98549066 169 140 109
-0.06303175 -0.11981023 1.98549066 169 140 109
-0.06303175 -0.11981023 1.98549066 169 140 109
-0.06272125 -0.12287855 1.98675965 95 67 29
-0.06033013 -0.08171439 1.98219632 149 123 100
-0.06032060 -0.13272469 1.98984893 79 51 12
-0.05929463 -0.12571489 1.98759038 85 53 14
-0.05776509 -0.16505451 1.99779495 77 48 15
-0.05666774 -0.12883389 1.98846705 197 171 140
-0.05532435 -0.09195331 1.98432856 97 66 41
-0.05536972 -0.13191709 1.99004782 75 46 14
-0.05472541 -0.08605847 1.98302772 87 60 25
-0.05441871 -0.12327977 1.98740740 139 108 77
-0.05366034 -0.14146423 1.99395561 156 122 83
-0.04996152 -0.08946093 1.98493146 135 104 74
-0.04996152 -0.08946093 1.98493146 135 104 74
-0.04956430 -0.16696933 1.99952565 78 47 12
-0.04581789 -0.09466443 1.98485909 70 41 9
-0.04465500 -0.13265319 1.99146954 86 56 27
-0.04401780 -0.12478909 1.98958753 73 47 16
-0.04375445 -0.12972952 1.99050906 190 159 130
-0.04375445 -0.12972952 1.99050906 190 159 130
-0.04344664 -0.19956760 2.01352414 79 51 15
-0.04132143 -0.09321008 1.98494213 68 39 7
-0.03820782 -0.16271742 2.00048630 72 40 9
-0.03820782 -0.16271742 2.00048630 72 40 9
-0.03747311 -0.12874230 1.98951547 171 144 117
-0.03714788 -0.12527324 1.98978834 68 41 11
-0.03142008 -0.13329430 1.99182518 80 50 23
-0.03142008 -0.13329430 1.99182518 80 50 23
-0.02995226 -0.09839301 1.98640546 70 41 9
-0.02998612 -0.09591164 1.98602637 117 91 62
-0.02998612 -0.09591164 1.98602637 117 91 62
-0.02827952 0.06034127 2.01584539 163 163 136
-0.02731495 -0.22756370 2.03242979 161 127 82
-0.02709252 0.02981646 2.02054854 164 163 133
-0.02754419 0.08316487 2.07906557 111 89 63
-0.02657663 0.02033415 2.02393566 160 153 129
-0.02506016 0.05867454 2.02065626 84 63 42
-0.02513037 0.07627664 2.08008285 89 72 52
-0.02360958 0.04509147 2.02444903 84 70 50
-0.02028646 -0.19429742 2.01781228 69 46 17
-0.01911533 -0.20767536 2.01854729 166 134 93
-0.01085741 -0.19118532 2.01767405 23 18 15
-0.01012265 -0.06656630 1.98434495 126 99 69
-0.01024901 -0.22346003 2.03317272 75 47 10
-0.01063267 -0.23235833 2.03660425 165 127 88
-0.00655282 -0.16276279 2.00617303 74 46 15
-0.00672750 0.02096631 2.00224963 121 96 76
-0.00624310 -0.20275602 2.02292753 10 6 1
-0.00489163 0.01678314 1.99991741 111 86 64
-0.00423390 0.00252446 2.00456132 66 40 17
-0.00343226 -0.18835774 2.01774405 28 25 19
-0.00385013 -0.10681520 1.98715562 82 51 23
0.00008618 -0.15936505 2.00515432 163 128 94
0.00011206 -0.19150113 2.01878651 188 174 158
0.00011206 -0.19150113 2.01878651 188 174 158
0.00028089 0.04930204 1.99092873 73 44 12
0.00077914 -0.04966946 1.98829702 75 48 18
0.00240986 0.11743218 1.97832023 113 91 67
0.00308882 -0.10876716 1.99118964 78 47 18
0.00696017 -0.14566039 1.99938867 75 46 15
0.00646338 -0.16709749 2.00845429 80 48 26
0.00936541 -0.23547891 2.03618475 74 38 11
0.00940706 -0.24417917 2.03806903 172 133 98
0.01170480 -0.07755143 1.98857436 126 98 68
0.01231546 -0.05872137 1.99117581 54 27 5
0.01231590 -0.17687798 2.01223600 134 109 79
0.01305683 -0.23749331 2.03586446 74 40 13
0.01518200 -0.11584304 1.99208014 94 62 30
0.01518200 -0.11584304 1.99208014 94 62 30
0.01549309 0.10041630 1.98041642 68 37 16
0.01618438 0.10653918 1.97649354 62 35 8
0.01691709 -0.15041406 2.00140624 66 39 15
0.01691709 -0.15041406 2.00140624 66 39 15
0.01753575 -0.15571896 2.00239274 126 93 61
0.01799814 -0.22081678 2.02531466 86 53 18
0.01806322 -0.21732464 2.02392105 76 46 9
0.01838705 -0.06006180 1.99103862 51 24 0
0.02020305 -0.20747930 2.02323992 100 73 48
0.02084031 -0.18391798 2.01458059 150 120 86
0.02186129 -0.22165379 2.02588658 80 48 15
0.02200649 0.05643343 1.98282400 73 45 15
0.02240886 0.13308252 1.97184119 63 36 9
0.02727381 -0.19597849 2.02269502 118 86 48
0.02707512 0.00258248 1.99605989 58 33 11
0.03123168 -0.17736450 2.01355120 61 34 12
0.03264089 -0.25212082 2.04406115 115 76 36
0.03291136 -0.24777532 2.04226555 162 125 86
0.03291136 -0.24777532 2.04226555 162 125 86
0.03296866 -0.25554867 2.04415502 170 135 93
0.03398548 -0.19210841 2.01609570 93 62 32
0.03398548 -0.19210841 2.01609570 93 62 32
0.03434010 -0.15254929 2.00422679 134 106 84
0.03469293 -0.02789025 1.99220970 121 94 67
0.03539315 -0.15589874 2.00540001 65 37 14
0.03539315 -0.15589874 2.00540001 65 37 14
0.04119322 -0.19643670 2.01825895 74 45 12
0.04262848 -0.08309353 1.99116319 66 39 12
0.04292594 -0.15905176 2.00700936 153 120 87
0.04307367 -0.17907372 2.01547087 67 36 6
0.04381100 0.12976068 1.96709587 66 36 11
0.04687529 -0.11752955 1.99783535 65 39 14
0.04776954 0.29774122 1.99887328 44 28 5
0.04858863 0.12938321 1.96303601 127 101 70
0.05036044 -0.18044646 2.01771123 73 42 11
0.05005553 0.28084799 1.99922939 99 81 61
0.05072677 0.00038206 1.99678976 95 71 45
0.05083802 -0.08209267 1.99217588 69 42 21
0.05110122 0.07892903 1.97307687 76 46 12
0.05208705 -0.18810221 2.01830948 83 58 28
0.05263606 -0.15769652 2.00880833 63 34 10
0.05198441 0.08950989 1.97153010 68 42 9
0.05222407 0.10936705 1.96502232 77 48 19
0.05302772 -0.09121713 1.99380733 70 38 11
0.05297461 -0.00419445 1.99678254 33 15 1
0.05358667 0.02421064 1.98876504 40 19 0
0.05327881 0.08639584 1.97189168 70 43 13
0.05327881 0.08639584 1.97189168 70 43 13
0.05331133 0.09998720 1.96596777 133 108 77
0.05360283 0.30609606 1.99262137 46 28 7
0.05335007 0.09309575 1.96934331 123 98 67
0.05452841 -0.05782157 1.99092730 59 37 13
0.05541723 -0.17651863 2.01605898 163 128 90
0.05435027 0.07938724 1.97240047 114 87 57
0.05609813 0.00695244 1.99294172 71 47 23
0.05559588 0.10242890 1.96522241 133 107 77
0.05702727 -0.10875316 1.99913131 37 21 3
0.05632851 0.12196313 1.96211584 82 55 26
0.05849141 -0.18321825 2.01913709 62 33 3
0.05766844 0.09292553 1.96943177 71 44 17
0.05949322 -0.12948560 2.00100886 156 123 86
0.05911931 0.12025078 1.96329753 123 97 65
0.05968989 0.12396164 1.96252312 126 100 69
0.06154917 0.12672308 1.96064892 81 52 22
0.06177620 0.08478988 1.97324998 58 32 7
0.06190550 0.08868643 1.97071413 98 73 48
0.06192644 0.11634515 1.96546621 53 24 1
0.06464245 -0.04932156 1.99724622 110 82 60
0.06421161 -0.14132128 2.00702414 135 99 65
0.06438259 -0.04522355 1.99771104 43 19 0
0.06613433 -0.10136959 1.99986721 122 92 64
0.06747440 -0.18625802 2.02178559 66 36 8
0.06636756 0.30843468 1.99250336 19 8 1
0.06945389 -0.09765580 1.99835853 59 33 12
0.07039870 -0.16244436 2.01260111 74 44 20
0.07111425 -0.18634277 2.02276561 64 34 5
0.07171183 -0.14816609 2.01141360 30 14 1
0.07385385 -0.13050486 2.00465926 127 99 76
0.07376164 -0.03258891 1.99489479 63 37 11
0.07767947 -0.14387062 2.01099284 134 103 73
0.07986712 -0.15395072 2.01493452 37 17 1
0.07860218 0.03414899 1.98313724 50 25 3
0.08230364 -0.22290795 2.03904153 70 38 9
0.08133983 -0.05406828 1.99947928 90 68 45
0.08387677 0.00180544 1.99297209 51 27 0
0.08784092 -0.22529445 2.04166323 41 19 1
0.08620443 -0.10206183 1.96029844 62 36 16
0.08731061 0.16849730 1.95461522 132 99 69
0.08839870 -0.12810962 1.97345200 85 52 19
0.08843504 -0.12522593 1.96972544 86 54 23
0.08948104 0.17562985 1.95516247 55 29 4
0.09072588 -0.09432946 1.96190427 53 26 5
0.09203177 -0.11767131 1.96423288 168 140 110
0.09203177 -0.11767131 1.96423288 168 140 110
0.09187384 -0.11447091 1.96345594 97 70 40
0.09187384 -0.11447091 1.96345594 97 70 40
0.09231261 -0.07775775 1.95821033 53 26 6
0.09545655 0.31029239 1.99453682 11 2 0
0.09415889 -0.10981635 1.96198852 141 111 85
0.09382153 -0.05580019 1.95326331 131 104 76
0.09550734 -0.09509067 1.95931315 140 110 81
0.09663540 0.06514582 1.97577198 53 28 1
0.09622817 -0.07829580 1.95642692 160 128 92
0.09678102 -0.06835805 1.95330967 177 148 115
0.09752378 -0.10508240 1.96175222 86 54 20
0.09868772 -0.11586593 1.96488123 75 41 14
0.09933760 -0.12068927 1.96488420 157 125 95
0.10109529 -0.11816604 1.96421713 78 47 16
0.10222757 -0.15362146 1.98158854 88 56 6
0.10109103 -0.05516829 1.95308371 142 114 84
0.10154567 -0.06620974 1.95194149 144 115 85
0.10376838 -0.10568098 1.96301003 86 56 22
0.10470135 -0.11207170 1.96210267 93 63 25
0.10594573 -0.06333488 1.95322638 73 45 15
0.10649474 -0.08478088 1.95712715 153 120 82
0.10649474 -0.08478088 1.95712715 153 120 82
0.10828373 -0.17204958 1.98736315 115 81 38
0.10827260 -0.15643561 1.98464780 89 57 10
0.10969951 -0.07534136 1.95592112 79 45 19
0.10969951 -0.07534136 1.95592112 79 45 19
0.10960016 0.19250134 1.95287237 129 96 61
0.10960016 0.19250134 1.95287237 129 96 61
0.10941294 -0.05746986 1.95394585 141 115 87
0.10998987 -0.03149890 1.95426318 83 52 21
0.11108209 0.12510323 1.96118494 60 34 6
0.11283824 0.21556105 1.95106435 132 103 71
0.11637112 0.09093939 1.97067575 56 32 4
0.11614274 0.12461943 1.96208989 71 44 15
0.11846483 0.09488913 1.96900363 112 85 52
0.11821827 -0.09129342 1.96517369 169 139 108
0.12035185 0.19009357 1.95204221 103 71 33
0.12968043 0.08861875 1.97091350 65 40 10
0.13096418 -0.02302110 1.96643549 170 143 114
0.13689665 0.22787761 1.95780884 145 113 79
0.14145602 0.11282686 1.96978213 130 97 59
0.14295818 0.07592664 1.98128188 60 34 4
0.14234131 -0.00043960 1.97256178 92 62 24
0.14102318 0.33956772 1.93545521 117 98 74
0.14237372 0.32808631 1.93762015 166 135 98
0.14812049 0.12065383 1.96779111 189 156 120
0.14906954 0.13790533 1.96832152 54 31 1
0.15193664 0.22011873 1.96068337 72 41 11
0.15284768 0.11059111 1.97221130 135 101 72
0.15577724 0.28760306 1.95235972 69 43 8
0.15758873 0.16579148 1.96554096 62 35 3
0.16054883 0.05085828 1.99018030 85 60 29
0.16023229 0.08500472 1.97878346 174 143 110
0.16023229 0.08500472 1.97878346 174 143 110
0.16166501 0.32934035 1.93353717 91 56 24
0.16674402 0.07314252 1.98758501 136 101 65
0.16561528 0.25873102 1.96486681 110 80 55
0.16313270 0.33481383 1.93098812 94 61 24
0.16609832 0.16377573 1.96821813 63 38 0
0.16808049 -0.01831671 1.99242330 77 46 12
0.16809697 -0.01857100 1.99194185 77 46 12
0.16543220 0.29278186 1.94959514 155 118 77
0.17433748 0.30409009 1.94226382 164 126 85
0.17948047 0.19987387 1.96572895 119 90 56
0.18263122 0.15110019 1.97228433 143 112 83
0.18123193 0.30214714 1.94216002 115 76 37
0.18518012 0.19960905 1.96551473 125 97 58
0.18535848 0.21360682 1.96517638 83 53 19
0.18689380 0.10857582 1.98225300 104 69 32
0.19092996 0.29346274 1.94867253 93 59 23
0.19832210 0.07383190 1.99675121 173 139 102
0.19991152 0.29484926 1.94883024 98 66 27
0.20252446 0.21702291 1.96635287 171 137 99
0.20487149 0.16650409 1.97479304 88 59 16
0.20131568 0.33308918 1.93535797 179 144 106
0.20984902 0.09045376 1.99964607 165 130 87
0.20654127 0.22259914 1.96501691 185 151 114
0.20857826 0.13664125 1.98098777 183 149 115
0.20930921 0.16574616 1.97612160 87 58 17
0.21442682 0.28945106 1.95179221 106 76 38
0.21947989 0.16501545 1.97941304 134 103 66
0.21947989 0.16501545 1.97941304 134 103 66
0.22125287 0.26061666 1.96437357 88 56 15
0.22298120 0.21241674 1.97154146 144 112 71
0.22298048 0.24743090 1.97046900 121 91 56
0.22420287 0.22259530 1.96719574 165 132 91
0.22648317 0.15693127 1.98404105 94 65 25
0.22834176 0.22393404 1.96882695 105 71 38
0.22834176 0.22393404 1.96882695 105 71 38
0.23210141 0.16257610 1.98081600 118 86 46
0.23210141 0.16257610 1.98081600 118 86 46
0.23612041 0.17630198 1.98478152 78 51 21
0.23974427 0.32531347 1.94222523 185 166 151
0.32135003 0.25502925 2.03050964 83 69 58
0.37945658 0.28014946 2.02944142 180 169 160
0.42842127 0.27655982 2.04200794 44 30 7
0.42850089 0.27674256 2.04227251 44 30 7
